<svg width="14" height="15" viewBox="0 0 14 15" fill="none" xmlns="http://www.w3.org/2000/svg">
<path d="M12.8452 13.6964L12.8506 13.7018C12.8528 13.7049 12.8546 13.7082 12.856 13.7116C12.8586 13.7177 12.8599 13.7243 12.8599 13.7308C12.8599 13.7374 12.8586 13.7439 12.856 13.75C12.8535 13.7561 12.8498 13.7616 12.8452 13.7663C12.8405 13.7709 12.835 13.7746 12.8289 13.7771C12.8228 13.7797 12.8163 13.781 12.8097 13.781C12.8032 13.781 12.7966 13.7797 12.7905 13.7771C12.7845 13.7746 12.7789 13.7709 12.7743 13.7663L9.27428 10.2663L8.95505 9.94705L8.60499 10.2321C7.62346 11.0315 6.37234 11.4232 5.11021 11.3263C3.84809 11.2294 2.67142 10.6513 1.82341 9.71147C0.9754 8.77167 0.520859 7.54199 0.553729 6.27658C0.5866 5.01116 1.10437 3.80674 2.00003 2.91223C2.89569 2.01772 4.10078 1.5015 5.36624 1.47026C6.63169 1.43901 7.86079 1.89513 8.7995 2.74435C9.73821 3.59357 10.3148 4.77098 10.4101 6.03323C10.5053 7.29548 10.112 8.54609 9.31143 9.5266L9.02553 9.87675L9.34517 10.1964L12.8452 13.6964ZM5.49627 11.2378H5.49673C6.44979 11.2378 7.38145 10.9552 8.17391 10.4258C8.96636 9.89629 9.58403 9.14373 9.9488 8.26324C10.3136 7.38275 10.4091 6.41387 10.2232 5.4791C10.0374 4.54434 9.57851 3.68567 8.90467 3.01168C8.23083 2.33769 7.37227 1.87863 6.43755 1.69257C5.50283 1.5065 4.53393 1.60177 3.65335 1.96634C2.77277 2.33091 2.02007 2.94839 1.49042 3.74073C0.960766 4.53306 0.677949 5.46466 0.677728 6.41772L1.17773 6.41783L0.677729 6.41818C0.678615 7.69597 1.18653 8.92118 2.08996 9.82482C2.99338 10.7285 4.21848 11.2367 5.49627 11.2378Z" fill="white" stroke="black"/>
</svg>
